<?xml version="1.0" standalone="no"?>
<!DOCTYPE svg PUBLIC "-//W3C//DTD SVG 20010904//EN"
 "http://www.w3.org/TR/2001/REC-SVG-20010904/DTD/svg10.dtd">
<svg version="1.0" xmlns="http://www.w3.org/2000/svg"
 width="260.000000pt" height="260.000000pt" viewBox="0 0 260.000000 260.000000"
 preserveAspectRatio="xMidYMid meet">
<metadata>
Created by potrace 1.11, written by Peter Selinger 2001-2013
</metadata>
<g transform="translate(0.000000,260.000000) scale(0.100000,-0.100000)"
fill="#000000" stroke="none">
<path d="M0 1300 l0 -1300 1300 0 1300 0 0 1300 0 1300 -1300 0 -1300 0 0
-1300z m1101 55 c110 -264 210 -506 224 -538 l25 -58 -86 3 -86 3 -62 160 -62
160 -223 0 -223 0 -58 -158 c-32 -87 -60 -161 -63 -163 -2 -3 -38 -4 -78 -2
l-74 3 209 538 210 538 74 -3 74 -3 199 -480z m892 471 c222 -52 293 -320 119
-453 l-42 -32 52 -28 c59 -31 112 -95 128 -151 42 -154 -34 -317 -176 -373
-56 -22 -73 -23 -341 -27 l-283 -4 0 541 0 541 243 0 c168 0 260 -4 300 -14z"/>
<path d="M811 1648 c-6 -28 -41 -130 -78 -227 -36 -97 -68 -182 -70 -188 -4
-10 33 -13 167 -13 160 0 172 1 165 18 -35 86 -114 295 -140 369 l-32 92 -12
-51z"/>
<path d="M1590 1550 l0 -162 178 4 c195 3 234 14 276 71 27 37 28 120 0 167
-36 63 -75 74 -276 78 l-178 4 0 -162z"/>
<path d="M1590 1076 l0 -186 168 0 c235 1 290 17 332 100 45 89 11 197 -75
240 -46 23 -62 25 -237 28 l-188 4 0 -186z"/>
</g>
</svg>
